<?xml version="1.0" encoding="UTF-8"?> <svg xmlns="http://www.w3.org/2000/svg" width="373" height="100" viewBox="0 0 373 100" fill="none"><path d="M100 0H0V100H100V0Z" fill="#BE1622"></path><path d="M57.5221 15.0439V29.867H42.4778V15.0439H15.0442V84.9555H42.4778V69.9112H57.5221V84.9555H84.9557V15.0439H57.5221Z" fill="white"></path><path d="M57.3009 35.1768H27.4336L49.7787 65.2653H79.8672L57.3009 35.1768Z" fill="#F59C12"></path><path d="M91.1505 10.1768L49.7788 65.2653H79.8673L121.018 10.1768H91.1505Z" fill="#F9B233"></path><path d="M132.08 39.8228V5.30957H139.823V18.5839H151.77V5.30957H159.735V39.8228H151.991V25.4423H139.823V39.8228H132.08Z" fill="white"></path><path d="M171.46 40.4864C170.354 40.4864 169.248 40.2651 168.142 39.8226C167.257 39.3802 166.372 38.9377 165.708 38.0527C165.044 37.389 164.602 36.5041 164.159 35.6191C163.717 34.7341 163.496 33.628 163.496 32.5218C163.496 29.8669 164.602 27.6545 167.035 26.1058C169.469 24.5572 173.009 23.451 178.319 23.0085C178.319 21.9023 177.876 21.0173 177.212 20.1324C176.549 19.4687 175.664 19.0262 174.115 19.0262C173.009 19.0262 171.903 19.2474 170.796 19.6899C169.69 20.1324 168.584 20.7961 167.257 21.4598L164.381 16.3713C166.15 15.2651 167.92 14.6014 169.69 13.9377C171.46 13.274 173.451 13.0527 175.664 13.0527C178.982 13.0527 181.637 13.9377 183.407 15.9288C185.177 17.92 186.062 20.7961 186.062 24.9996V40.0439H179.646L179.204 37.389H178.982C177.876 38.274 176.77 39.1589 175.443 39.8226C174.115 40.0439 172.788 40.4864 171.46 40.4864ZM174.115 34.2917C175 34.2917 175.664 34.0704 176.327 33.628C176.991 33.1855 177.655 32.743 178.319 32.0793V27.4333C175.664 27.8757 173.673 28.3182 172.566 29.2032C171.46 29.8669 171.018 30.7518 171.018 31.858C171.018 32.743 171.239 33.4067 171.903 33.628C172.345 34.0704 173.009 34.2917 174.115 34.2917Z" fill="white"></path><path d="M195.796 39.8225V48.8933H189.159L188.496 38.7164V33.6279H190.044C190.266 33.4066 190.708 33.1854 190.929 32.9641C191.15 32.5217 191.372 32.0792 191.814 31.4155C192.035 30.7518 192.257 29.6456 192.478 28.5394C192.699 27.4332 192.92 25.8845 193.142 23.8933L194.248 13.4951H213.717V33.6279H217.92V38.7164L217.257 48.8933H210.619V39.8225H195.796ZM199.779 25.6633C199.558 27.4332 199.336 28.9818 198.894 30.3093C198.451 31.6367 198.009 32.7429 197.566 33.8491H205.973V19.6898H200.443L199.779 25.6633Z" fill="white"></path><path d="M232.08 40.4868C230.31 40.4868 228.54 40.2656 226.77 39.6018C225.221 38.9381 223.672 38.0532 222.566 36.947C221.46 35.8408 220.354 34.2921 219.69 32.7434C219.026 30.9735 218.584 29.2036 218.584 26.9912C218.584 24.7788 219.026 23.0089 219.69 21.239C220.354 19.4691 221.239 18.1417 222.566 16.8142C223.672 15.708 225 14.8231 226.549 14.1594C228.097 13.4957 229.646 13.2744 231.195 13.2744C232.965 13.2744 234.734 13.4957 236.062 14.1594C237.389 14.8231 238.717 15.708 239.602 16.8142C240.487 17.9204 241.15 19.2479 241.593 20.7965C242.035 22.3452 242.257 23.8939 242.257 25.885C242.257 26.5487 242.257 27.2125 242.257 27.8762C242.257 28.5399 242.035 28.9824 242.035 29.2036H226.327C226.77 31.1948 227.434 32.5222 228.761 33.4072C229.867 34.2921 231.416 34.7346 233.186 34.7346C234.956 34.7346 236.947 34.0709 238.938 32.9647L241.593 37.6107C240.265 38.4957 238.717 39.1594 237.168 39.8231C235.619 40.4868 233.628 40.4868 232.08 40.4868ZM226.327 23.6726H235.841C235.841 22.124 235.398 21.0178 234.734 20.1328C234.071 19.2479 232.965 18.8054 231.416 18.8054C230.088 18.8054 229.203 19.2479 228.097 19.9116C227.212 20.7965 226.549 22.124 226.327 23.6726Z" fill="white"></path><path d="M242.699 39.8232L251.106 26.3276L249.558 23.009C249.115 21.9028 248.673 21.2391 248.009 20.7966C247.566 20.3542 246.903 20.3542 246.239 20.3542C246.018 20.3542 245.797 20.3542 245.797 20.3542C245.575 20.3542 245.575 20.3542 245.354 20.5754L244.248 13.2745C244.912 13.0533 245.575 12.832 246.46 12.832C248.451 12.832 250 13.2745 251.328 13.9382C252.655 14.8232 253.761 16.1506 254.867 18.363L257.08 23.2303H259.513V13.4957H266.372V23.2303H268.805L271.018 18.363C271.903 16.1506 273.23 14.8232 274.558 13.9382C275.885 13.0533 277.434 12.832 279.425 12.832C280.31 12.832 280.974 13.0533 281.637 13.2745L280.531 20.5754C280.31 20.5754 280.089 20.3542 280.089 20.3542C279.867 20.3542 279.867 20.3542 279.646 20.3542C278.982 20.3542 278.319 20.5754 277.876 20.7966C277.434 21.2391 276.77 21.9028 276.328 23.009L274.779 26.3276L283.186 39.8232H274.779L269.248 29.425H265.929V39.8232H259.071V29.425H256.637L251.106 39.8232H242.699Z" fill="white"></path><path d="M284.292 39.8226V13.4951H292.035V23.0084H300.442V13.4951H308.186V39.8226H300.442V29.8668H292.035V39.8226H284.292Z" fill="white"></path><path d="M313.274 39.8226V13.4951H321.018V21.9022H323.009C324.558 21.9022 326.106 22.1234 327.434 22.3447C328.761 22.5659 330.089 23.2296 330.974 23.8933C332.08 24.5571 332.743 25.442 333.407 26.5482C334.071 27.6544 334.292 28.9818 334.292 30.7518C334.292 32.5217 334.071 33.8491 333.407 34.9553C332.743 36.0615 332.08 36.9464 330.974 37.8314C329.867 38.4951 328.761 39.1588 327.434 39.3801C326.106 39.6013 324.558 39.8226 323.009 39.8226H313.274ZM321.018 33.8491H322.566C325.443 33.8491 326.77 32.7429 326.77 30.7518C326.77 28.7606 325.443 27.6544 322.566 27.6544H321.018V33.8491ZM337.832 39.8226V13.4951H345.575V39.8226H337.832Z" fill="white"></path><path d="M362.389 40.4868C360.619 40.4868 358.85 40.2656 357.08 39.6018C355.531 38.9381 353.982 38.0532 352.876 36.947C351.77 35.8408 350.664 34.2921 350 32.7434C349.336 30.9735 348.894 29.2036 348.894 26.9912C348.894 24.7788 349.336 23.0089 350 21.239C350.664 19.4691 351.549 18.1417 352.876 16.8142C353.982 15.708 355.31 14.8231 356.858 14.1594C358.407 13.4957 359.956 13.2744 361.504 13.2744C363.274 13.2744 365.044 13.4957 366.372 14.1594C367.699 14.8231 369.027 15.708 369.911 16.8142C370.796 17.9204 371.46 19.2479 371.903 20.7965C372.345 22.3452 372.566 23.8939 372.566 25.885C372.566 26.5487 372.566 27.2125 372.566 27.8762C372.566 28.5399 372.345 28.9824 372.345 29.2036H356.637C357.08 31.1948 357.743 32.5222 359.071 33.4072C360.177 34.2921 361.726 34.7346 363.496 34.7346C365.265 34.7346 367.257 34.0709 369.248 32.9647L371.903 37.6107C370.575 38.4957 369.027 39.1594 367.478 39.8231C365.487 40.0443 363.938 40.4868 362.389 40.4868ZM356.637 23.6726H366.15C366.15 22.124 365.708 21.0178 365.044 20.1328C364.381 19.2479 363.274 18.8054 361.726 18.8054C360.398 18.8054 359.513 19.2479 358.407 19.9116C357.522 20.7965 356.858 22.124 356.637 23.6726Z" fill="white"></path><path d="M146.239 95.1327C143.805 95.1327 141.814 94.6902 139.823 93.8053C137.832 92.9203 136.283 91.8141 134.956 90.2655C133.628 88.7168 132.522 86.7256 131.858 84.5132C131.195 82.3008 130.752 79.8672 130.752 76.9911C130.752 74.115 131.195 71.6814 131.858 69.469C132.522 67.2566 133.628 65.4867 134.956 63.938C136.283 62.3893 138.053 61.2831 139.823 60.3982C141.814 59.5132 143.805 59.292 146.239 59.292C148.673 59.292 150.664 59.7345 152.655 60.3982C154.646 61.2831 156.195 62.3893 157.522 63.938C158.85 65.4867 159.956 67.2566 160.619 69.469C161.283 71.6814 161.726 74.115 161.726 76.9911C161.726 79.8672 161.283 82.3008 160.619 84.5132C159.956 86.7256 158.85 88.7168 157.522 90.2655C156.195 91.8141 154.425 92.9203 152.655 93.8053C150.664 94.6902 148.451 95.1327 146.239 95.1327ZM146.239 88.4955C148.673 88.4955 150.442 87.3893 151.77 85.3982C153.097 83.407 153.761 80.5309 153.761 77.2123C153.761 73.6725 153.097 71.0177 151.77 69.0265C150.442 67.0354 148.451 66.1504 146.239 66.1504C143.805 66.1504 142.035 67.0354 140.708 69.0265C139.381 71.0177 138.717 73.6725 138.717 77.2123C138.717 80.7522 139.381 83.407 140.708 85.3982C142.035 87.3893 143.805 88.4955 146.239 88.4955Z" fill="white"></path><path d="M165.708 94.4691V68.3629H173.451V78.0975H176.106L178.319 73.2302C178.761 72.124 179.425 71.239 179.867 70.5753C180.531 69.9116 180.974 69.2479 181.637 68.8054C182.301 68.3629 182.965 68.1417 183.85 67.9205C184.735 67.6992 185.398 67.6992 186.504 67.6992C187.389 67.6992 188.053 67.9205 188.717 68.1417L187.611 75.4426C187.389 75.4426 187.168 75.2213 187.168 75.2213C186.947 75.2213 186.947 75.2213 186.726 75.2213C186.062 75.2213 185.398 75.4426 184.956 75.6638C184.513 75.8851 183.85 76.77 183.407 77.8762L181.858 80.7523L190.708 94.4691H182.301L176.327 84.0709H173.673V94.4691H165.708Z" fill="white"></path><path d="M192.92 94.4685V68.3623H200.664V77.8756H209.071V68.3623H216.814V94.6897H209.071V84.734H200.664V94.6897H192.92V94.4685Z" fill="white"></path><path d="M228.319 95.1328C227.212 95.1328 226.106 94.9116 225 94.4691C224.115 94.0266 223.23 93.5842 222.566 92.6992C221.903 92.0355 221.46 91.1505 221.018 90.2656C220.575 89.3806 220.354 88.2744 220.354 87.1682C220.354 84.5134 221.46 82.301 223.894 80.7523C226.327 79.2036 229.867 78.0974 235.177 77.655C235.177 76.5488 234.735 75.6638 234.071 74.7789C233.407 74.1151 232.522 73.6727 230.973 73.6727C229.867 73.6727 228.761 73.8939 227.655 74.3364C226.549 74.7789 225.442 75.4426 224.115 76.1063L221.239 71.0178C223.009 69.9116 224.779 69.2479 226.549 68.5842C228.319 67.9205 230.31 67.6992 232.522 67.6992C235.841 67.6992 238.496 68.5842 240.266 70.5753C242.035 72.5665 242.92 75.4426 242.92 79.6461V94.6904H236.504L236.062 92.0355H235.841C234.735 92.9205 233.628 93.8054 232.301 94.4691C231.195 94.9116 229.867 95.1328 228.319 95.1328ZM230.973 89.1594C231.858 89.1594 232.522 88.9382 233.186 88.4957C233.85 88.0532 234.513 87.6107 235.177 86.947V82.301C232.522 82.7435 230.531 83.1859 229.425 84.0709C228.319 84.7346 227.876 85.6196 227.876 86.7258C227.876 87.6107 228.097 88.2744 228.761 88.4957C229.425 88.9382 230.089 89.1594 230.973 89.1594Z" fill="white"></path></svg> 